<svg width="48" height="48" viewBox="0 0 48 48" fill="none" xmlns="http://www.w3.org/2000/svg">
<g clip-path="url(#clip0_1829_3055)">
<rect width="48" height="48" rx="8" fill="#601E0E"/>
<path d="M28.6667 36.8223C34.8889 32.1556 35.6667 31.2223 35.6667 25.7778C35.6667 20.3334 33.7222 16.4445 31.3889 15.6667C31.3889 15.6667 30.6111 14.8889 28.9778 14.1889C27.8111 13.7223 29.5222 8.27783 24.3889 8.66672C18.0111 9.13338 20.7333 13.4889 19.4111 13.8C16.3778 14.5 14.5889 16.0556 13.5 18.7778C12.5667 21.0334 12.5667 24.3 11.9444 27.3334C11.1667 31.2223 15.3667 33.0889 20.8111 37.7556L28.6667 36.8223Z" fill="#D0CFCE"/>
<path d="M24.4228 58.5C21.9768 58.5 20.276 57.2512 19.1564 55.0787C18.0203 52.874 17.5 49.7362 17.5 46.0769C17.5 43.2913 17.5014 42.3172 17.6591 41.2769C17.7526 40.6605 17.8982 40.0323 18.1331 39.019C18.2954 38.3191 18.5002 37.4353 18.7599 36.2448C18.789 36.2395 18.8273 36.2343 18.877 36.2306C19.074 36.2163 19.3494 36.2328 19.7115 36.2754C20.0202 36.3117 20.368 36.3638 20.7559 36.4218C20.8179 36.4311 20.881 36.4405 20.9452 36.4501C21.406 36.5187 21.9124 36.592 22.4452 36.6508C24.3624 36.8624 26.7241 36.9011 28.7113 35.7767C28.7159 35.792 28.7207 35.8075 28.7254 35.8233C28.853 36.243 29.0312 36.822 29.2337 37.4591C29.6358 38.7241 30.1406 40.2404 30.5363 41.1871C30.6983 41.6017 30.9575 41.8455 31.191 42.0371C31.242 42.0789 31.29 42.1171 31.3358 42.1536C31.5059 42.2892 31.6447 42.3999 31.7863 42.5736C32.1191 42.9818 32.5 43.8088 32.5 46.0769C32.5 49.7085 31.7386 52.8373 30.3461 55.0406C28.9644 57.2267 26.9684 58.5 24.4228 58.5Z" fill="#F9D0B2" stroke="black"/>
<path d="M15.4445 28.1112C15.4445 34.3334 18.5556 39.0001 23.9222 39.0001C29.4445 39.0001 32.5556 34.3334 32.5556 28.1112C32.5556 24.2223 31.4667 22.1223 31 21.1112C30.2222 19.5556 29.4445 18.7778 29.4445 18.7778C25.5556 21.1112 18.5556 18.7778 17.7778 19.5556C17 20.3334 15.4445 23.4445 15.4445 28.1112Z" fill="#F9D0B2"/>
<path d="M25.5556 33.5555C24.6222 34.1778 23.5333 34.1778 22.4445 33.5555" stroke="black" stroke-linecap="round" stroke-linejoin="round"/>
<path d="M20.1112 32C20.1112 32.7778 19.3334 33.5556 19.3334 33.5556" stroke="black" stroke-linecap="round" stroke-linejoin="round"/>
<path d="M27.8889 32C27.8889 32.7778 28.6667 33.5556 28.6667 33.5556" stroke="black" stroke-linecap="round" stroke-linejoin="round"/>
<path d="M28.5889 26.5556C28.5889 27.4111 27.8889 28.1111 27.0333 28.1111C26.1778 28.1111 25.4778 27.4111 25.4778 26.5556C25.4778 25.7 26.1778 25 27.0333 25C27.8889 25 28.5889 25.7 28.5889 26.5556Z" fill="black"/>
<path d="M22.3667 26.5556C22.3667 27.4111 21.6667 28.1111 20.8112 28.1111C19.9556 28.1111 19.2556 27.4111 19.2556 26.5556C19.2556 25.7 19.9556 25 20.8112 25C21.6667 25 22.3667 25.7 22.3667 26.5556Z" fill="black"/>
<path d="M15.4445 28.111C15.4445 34.3333 18.5556 38.9999 23.9222 38.9999C29.4445 38.9999 32.5556 34.3333 32.5556 28.111C32.5556 24.2222 31.4667 22.1222 31 21.111C30.2222 19.5555 29.4445 18.7777 29.4445 18.7777C25.5556 21.111 18.5556 18.7777 17.7778 19.5555C17 20.3333 15.4445 23.4444 15.4445 28.111Z" stroke="black" stroke-linejoin="round"/>
<path d="M16.2223 33.5555C14.6667 33.5555 12.3334 31.2221 12.3334 27.3333C12.3334 24.2221 12.3334 22.6666 13.1112 20.3333C14.5112 16.0555 17.7778 13.3333 24 13.3333C28.6667 13.3333 31 15.6666 31 15.6666C33.3334 16.4444 35.6667 19.4777 35.6667 24.9999C35.6667 30.4444 34.1111 34.3333 31.7778 34.3333" stroke="black" stroke-linecap="round" stroke-linejoin="round"/>
<path d="M28.6667 14.1111C29.4445 12.5555 28.6667 11 27.8889 10.2222C26.3334 8.66663 21.4334 8.66663 19.8778 11C19.2556 11.9333 19.3334 12.7889 19.5667 13.3333" stroke="black" stroke-linecap="round" stroke-linejoin="round"/>
<path d="M9.22217 48.6666V46.3333C9.22217 42.4444 13.1111 39.3333 16.9999 39.3333C21.6666 43.2221 26.3333 43.2221 30.9999 39.3333C34.8888 39.3333 38.7777 42.4444 38.7777 46.3333V48.6666" stroke="black" stroke-linecap="round" stroke-linejoin="round"/>
<path d="M38.2777 46.3333V48.9444H9.72217V46.3333C9.72217 44.5626 10.6077 42.9423 11.9802 41.7528C13.3095 40.6007 15.0658 39.881 16.8231 39.8355C19.1729 41.7546 21.5677 42.7499 23.9999 42.7499C26.4322 42.7499 28.827 41.7546 31.1768 39.8355C32.9341 39.881 34.6904 40.6007 36.0197 41.7528C37.3922 42.9423 38.2777 44.5626 38.2777 46.3333Z" fill="#92D3F5" stroke="black"/>
</g>
<defs>
<clipPath id="clip0_1829_3055">
<rect width="48" height="48" rx="8" fill="white"/>
</clipPath>
</defs>
</svg>
