<svg width="258" height="160" viewBox="0 0 258 160" fill="none" xmlns="http://www.w3.org/2000/svg">
<path d="M256.111 137.29H0.910654C0.407801 137.29 0 136.882 0 136.379C0 135.876 0.407801 135.469 0.910654 135.469H256.111C256.614 135.469 257.021 135.877 257.021 136.379C257.021 136.882 256.614 137.29 256.111 137.29Z" fill="#BFDDD1"/>
<path d="M200.021 144.281H40.006V140.322H200.021C211.278 140.322 220.436 131.164 220.436 119.908V96.0059H224.395V119.908C224.395 133.347 213.461 144.281 200.021 144.281Z" fill="#A6E1EB"/>
<path d="M149.318 89.5345H128.349V134.683H149.318V89.5345Z" fill="#305D44"/>
<path d="M149.318 89.5345H138.344V134.683H149.318V89.5345Z" fill="#80AF59"/>
<path d="M145.979 97.03H130.71V127.742H145.979V97.03Z" fill="#91BAA3"/>
<path d="M145.979 97.03H138.344V127.742H145.979V97.03Z" fill="#FEFEFE"/>
<path d="M150.974 87.7943H125.714V91.2744H150.974V87.7943Z" fill="#D8EBD4"/>
<path d="M150.146 87.7942H126.542L128.238 85.4171H148.449L150.146 87.7942Z" fill="#99BDA6"/>
<path d="M96.7241 134.683H15.2864C12.9535 134.683 11.045 132.774 11.045 130.441V15.5862C11.045 13.2533 12.9535 11.3448 15.2864 11.3448H96.7237C99.0566 11.3448 100.965 13.2533 100.965 15.5862V130.441C100.965 132.774 99.0566 134.683 96.7241 134.683Z" fill="#A6E1EB"/>
<path d="M96.7243 11.3448H56.072V134.683H96.7243C99.0572 134.683 100.966 132.775 100.966 130.442V15.5862C100.966 13.2533 99.0567 11.3448 96.7243 11.3448Z" fill="#8DD3DB"/>
<path d="M90.0256 121.362H21.9854C20.0362 121.362 18.4418 119.767 18.4418 117.818V21.8578C18.4418 19.9086 20.0366 18.3142 21.9854 18.3142H90.0256C91.9748 18.3142 93.5692 19.9091 93.5692 21.8578V117.818C93.5692 119.767 91.9744 121.362 90.0256 121.362Z" fill="white"/>
<path d="M90.0254 18.3142H56.0052V121.362H90.0254C91.9746 121.362 93.569 119.767 93.569 117.818V21.8578C93.569 19.9086 91.9741 18.3142 90.0254 18.3142Z" fill="#EBF1F2"/>
<path d="M77.8411 9.02191V23.3042C77.8411 24.079 77.2072 24.7128 76.4324 24.7128H35.5778C34.8029 24.7128 34.1691 24.079 34.1691 23.3042V9.02191" stroke="#A6A6A6" stroke-width="4" stroke-miterlimit="10"/>
<path d="M77.7161 11.9681H34.2947C32.8606 11.9681 31.6871 10.7946 31.6871 9.36055C31.6871 7.92646 32.8606 6.75299 34.2947 6.75299H77.7161C79.1502 6.75299 80.3237 7.92646 80.3237 9.36055C80.3237 10.7946 79.1502 11.9681 77.7161 11.9681Z" fill="#8BCFCC"/>
<path d="M87.8008 38.9478H24.5719C24.0116 38.9478 23.5535 38.4897 23.5535 37.9294C23.5535 37.3692 24.0116 36.911 24.5719 36.911H87.8004C88.3606 36.911 88.8188 37.3692 88.8188 37.9294C88.8192 38.4897 88.361 38.9478 87.8008 38.9478Z" fill="#DAE8F1"/>
<path d="M87.8008 44.6032H24.5719C24.0116 44.6032 23.5535 44.145 23.5535 43.5848C23.5535 43.0245 24.0116 42.5659 24.5719 42.5659H87.8004C88.3606 42.5659 88.8188 43.0241 88.8188 43.5848C88.8192 44.145 88.361 44.6032 87.8008 44.6032Z" fill="#DAE8F1"/>
<path d="M87.8008 50.2585H24.5719C24.0116 50.2585 23.5535 49.8003 23.5535 49.2401C23.5535 48.6799 24.0116 48.2217 24.5719 48.2217H87.8004C88.3606 48.2217 88.8188 48.6799 88.8188 49.2401C88.8192 49.8003 88.361 50.2585 87.8008 50.2585Z" fill="#DAE8F1"/>
<path d="M87.2817 59.3532H24.7996C24.0129 59.3532 23.369 58.7093 23.369 57.9227C23.369 57.136 24.0129 56.4921 24.7996 56.4921H87.2817C88.0684 56.4921 88.7123 57.136 88.7123 57.9227C88.7123 58.7098 88.0684 59.3532 87.2817 59.3532Z" fill="#DAE8F1"/>
<path d="M87.2817 66.14H24.7996C24.0129 66.14 23.369 65.4961 23.369 64.7094C23.369 63.9227 24.0129 63.2788 24.7996 63.2788H87.2817C88.0684 63.2788 88.7123 63.9227 88.7123 64.7094C88.7123 65.4961 88.0684 66.14 87.2817 66.14Z" fill="#DAE8F1"/>
<path d="M87.2817 100.638H24.7996C24.0129 100.638 23.369 99.9936 23.369 99.207C23.369 98.4203 24.0129 97.7764 24.7996 97.7764H87.2817C88.0684 97.7764 88.7123 98.4203 88.7123 99.207C88.7123 99.9936 88.0684 100.638 87.2817 100.638Z" fill="#DAE8F1"/>
<path d="M87.2817 107.424H24.7996C24.0129 107.424 23.369 106.78 23.369 105.993C23.369 105.207 24.0129 104.563 24.7996 104.563H87.2817C88.0684 104.563 88.7123 105.207 88.7123 105.993C88.7123 106.78 88.0684 107.424 87.2817 107.424Z" fill="#DAE8F1"/>
<path d="M43.2124 94.3427H24.1732C23.7312 94.3427 23.3699 93.9809 23.3699 93.5394V71.0402C23.3699 70.5982 23.7312 70.2369 24.1732 70.2369H43.2124C43.6544 70.2369 44.0158 70.5987 44.0158 71.0402V93.5394C44.0162 93.9813 43.6544 94.3427 43.2124 94.3427Z" fill="#FEDC19"/>
<path d="M65.5913 94.3427H46.5521C46.1101 94.3427 45.7488 93.9809 45.7488 93.5394V71.0402C45.7488 70.5982 46.1106 70.2369 46.5521 70.2369H65.5913C66.0333 70.2369 66.3947 70.5987 66.3947 71.0402V93.5394C66.3951 93.9813 66.0333 94.3427 65.5913 94.3427Z" fill="#EF4E45"/>
<path d="M87.908 94.3427H68.8688C68.4268 94.3427 68.0654 93.9809 68.0654 93.5394V71.0402C68.0654 70.5982 68.4272 70.2369 68.8688 70.2369H87.908C88.3499 70.2369 88.7118 70.5987 88.7118 71.0402V93.5394C88.7118 93.9813 88.3499 94.3427 87.908 94.3427Z" fill="#88C94F"/>
<path d="M130.639 82.3232H100.965V134.683H130.639V82.3232Z" fill="#FE6735"/>
<path d="M130.639 82.3232H115.802V134.683H130.639V82.3232Z" fill="#D75A32"/>
<path d="M133.317 98.9822H107.602V115.866H133.317V98.9822Z" fill="white"/>
<path d="M133.317 98.9822H120.46V115.866H133.317V98.9822Z" fill="#C3DDCD"/>
<path d="M130.639 100.638H110.28V104.563H130.639V100.638Z" fill="#939393"/>
<path d="M128.377 105.829H110.28V108.503H128.377V105.829Z" fill="#939393"/>
<path d="M128.377 110.105H110.28V112.78H128.377V110.105Z" fill="#939393"/>
<path d="M123.852 110.105H110.28V112.386H123.852V110.105Z" fill="#AFAFAF"/>
<path d="M123.852 105.829H110.28V108.109H123.852V105.829Z" fill="#AFAFAF"/>
<path d="M126.291 100.638H110.28V103.691H126.291V100.638Z" fill="#AFAFAF"/>
<path d="M133.316 79.735H97.8374V84.1586H133.316V79.735Z" fill="#D75A32"/>
<path d="M116.938 84.1586H103.622C102.4 84.1586 101.41 83.1683 101.41 81.9471C101.41 80.7254 102.4 79.7355 103.622 79.7355H116.938C118.159 79.7355 119.149 80.7258 119.149 81.9471C119.15 83.1683 118.159 84.1586 116.938 84.1586Z" fill="#FE6735"/>
<path d="M133.316 71.8632H97.8374V79.735H133.316V71.8632Z" fill="#DAE8F1"/>
<path d="M101.129 78.4845H100.803C100.029 78.4845 99.4022 77.8572 99.4022 77.0841V74.5142C99.4022 73.7406 100.029 73.1138 100.803 73.1138H101.129C101.902 73.1138 102.53 73.7411 102.53 74.5142V77.0841C102.53 77.8576 101.902 78.4845 101.129 78.4845Z" fill="#C3DDCD"/>
<path d="M107.35 78.4845H107.023C106.25 78.4845 105.623 77.8572 105.623 77.0841V74.5142C105.623 73.7406 106.25 73.1138 107.023 73.1138H107.35C108.123 73.1138 108.751 73.7411 108.751 74.5142V77.0841C108.751 77.8576 108.123 78.4845 107.35 78.4845Z" fill="#C3DDCD"/>
<path d="M113.005 78.4845H112.679C111.905 78.4845 111.278 77.8572 111.278 77.0841V74.5142C111.278 73.7406 111.905 73.1138 112.679 73.1138H113.005C113.779 73.1138 114.405 73.7411 114.405 74.5142V77.0841C114.405 77.8576 113.778 78.4845 113.005 78.4845Z" fill="#C3DDCD"/>
<path d="M118.66 78.4845H118.334C117.56 78.4845 116.933 77.8572 116.933 77.0841V74.5142C116.933 73.7406 117.56 73.1138 118.334 73.1138H118.66C119.433 73.1138 120.061 73.7411 120.061 74.5142V77.0841C120.06 77.8576 119.433 78.4845 118.66 78.4845Z" fill="#C3DDCD"/>
<path d="M124.316 78.4845H123.989C123.216 78.4845 122.589 77.8572 122.589 77.0841V74.5142C122.589 73.7406 123.216 73.1138 123.989 73.1138H124.316C125.089 73.1138 125.716 73.7411 125.716 74.5142V77.0841C125.716 77.8576 125.089 78.4845 124.316 78.4845Z" fill="#C3DDCD"/>
<path d="M129.971 78.4845H129.644C128.871 78.4845 128.244 77.8572 128.244 77.0841V74.5142C128.244 73.7406 128.871 73.1138 129.644 73.1138H129.971C130.744 73.1138 131.371 73.7411 131.371 74.5142V77.0841C131.371 77.8576 130.744 78.4845 129.971 78.4845Z" fill="#C3DDCD"/>
<path d="M130.64 70.0287H99.4022V71.8632H130.64V70.0287Z" fill="#EBF7F2"/>
<path d="M56.0056 70.2369H46.5521C46.1101 70.2369 45.7488 70.5987 45.7488 71.0406V93.5398C45.7488 93.9818 46.1106 94.3436 46.5521 94.3436H56.0056V70.2369Z" fill="#F8695E"/>
<path d="M227.672 97.4178L223.841 98.3446C205.577 102.764 187.122 91.5014 182.703 73.2375L170.935 24.6096C170.077 21.0651 172.263 17.4834 175.808 16.6253L180.679 15.4466L181.477 18.7445L176.606 19.9232C174.88 20.3411 173.816 22.0849 174.233 23.8111L186.001 72.4389C189.98 88.8841 206.597 99.0262 223.043 95.0463L226.874 94.1194C243.319 90.1395 253.461 73.5226 249.481 57.0774L237.5 7.56521C237.082 5.83895 235.338 4.77455 233.611 5.19242L229.513 6.18411L228.715 2.88622L232.813 1.89453C236.358 1.03688 239.94 3.22262 240.798 6.76756L252.78 56.2802C257.199 74.5436 245.936 92.9981 227.672 97.4178Z" fill="#AFAFAF"/>
<path d="M232.813 1.89398L228.715 2.88567L229.114 4.53484L232.153 3.79939C235.566 2.97328 239.016 5.07843 239.842 8.49196L251.38 56.171C255.636 73.7586 244.79 91.5297 227.202 95.786L223.513 96.6787C205.925 100.935 188.154 90.0886 183.898 72.501L172.566 25.6739C171.74 22.2604 173.845 18.8114 177.259 17.9853L181.07 17.0628L180.679 15.4465L175.808 16.6252C172.263 17.4829 170.077 21.0646 170.935 24.6095L182.703 73.2373C187.122 91.5012 205.577 102.765 223.841 98.3445L227.672 97.4176C245.936 92.998 257.199 74.5435 252.779 56.2792L240.798 6.76701C239.94 3.22208 236.358 1.03633 232.813 1.89398Z" fill="#8B8C8C"/>
<path d="M227.739 97.6928L223.909 98.6196C212.264 101.437 200.191 98.0528 191.614 89.5648L194.398 86.7514C201.993 94.2661 212.677 97.2648 222.978 94.772L226.808 93.8452C237.983 91.1412 246.581 82.4626 249.246 71.1975L253.099 72.109C250.088 84.8328 240.371 94.6362 227.739 97.6928Z" fill="#A6E1EB"/>
<path d="M227.132 95.1872L223.302 96.1141C212.367 98.7602 201.055 95.9362 192.614 88.5537L191.614 89.5651C200.19 98.0532 212.263 101.438 223.908 98.62L227.738 97.6931C240.37 94.6366 250.087 84.8332 253.098 72.1094L251.888 71.8229C248.322 83.4595 239.018 92.3107 227.132 95.1872Z" fill="#53BCAA"/>
<path d="M232.192 7.99127L224.308 9.89931C223.29 10.1459 222.255 9.51429 222.009 8.49632L220.984 4.26061C220.737 3.24264 221.369 2.20803 222.387 1.96142L230.271 0.053384C231.289 -0.193224 232.324 0.438406 232.57 1.45638L233.595 5.69208C233.842 6.71049 233.211 7.7451 232.192 7.99127Z" fill="#2D4344"/>
<path d="M230.342 6.177L223.796 7.7609C223.013 7.95056 222.216 7.46436 222.027 6.68073L221.313 3.72976C221.123 2.94613 221.609 2.1498 222.393 1.96013L228.939 0.376236C229.722 0.186571 230.519 0.672777 230.708 1.4564L231.422 4.40738C231.612 5.19057 231.126 5.9869 230.342 6.177Z" fill="#4D6666"/>
<path d="M183.222 19.8421L191.106 17.934C192.124 17.6874 192.756 16.6532 192.509 15.6348L191.484 11.3991C191.238 10.3812 190.203 9.74952 189.185 9.99613L181.3 11.9042C180.282 12.1508 179.651 13.185 179.897 14.2034L180.922 18.4391C181.169 19.4566 182.204 20.0882 183.222 19.8421Z" fill="#2D4344"/>
<path d="M182.278 17.8079L188.824 16.224C189.607 16.0343 190.093 15.238 189.904 14.4544L189.19 11.5034C189 10.7198 188.204 10.2336 187.42 10.4232L180.874 12.0071C180.091 12.1968 179.605 12.9931 179.794 13.7768L180.508 16.7277C180.697 17.5114 181.494 17.9976 182.278 17.8079Z" fill="#4D6666"/>
<path d="M222.65 96.0063V118.928C222.65 131.817 212.164 142.302 199.276 142.302H45.8213V140.322H40.0061V144.281H200.022C213.461 144.281 224.395 133.348 224.395 119.909V96.0068L222.65 96.0063Z" fill="#53BCAA"/>
<path d="M44.732 151.15C49.6194 146.263 49.6194 138.339 44.732 133.451C39.8445 128.564 31.9203 128.564 27.0329 133.451C22.1454 138.339 22.1454 146.263 27.0329 151.15C31.9203 156.038 39.8445 156.038 44.732 151.15Z" fill="#B6BFBF"/>
<path d="M35.8838 151.151C40.7712 151.151 44.7333 147.189 44.7333 142.302C44.7333 137.414 40.7712 133.452 35.8838 133.452C30.9964 133.452 27.0344 137.414 27.0344 142.302C27.0344 147.189 30.9964 151.151 35.8838 151.151Z" fill="#E9EDEE"/>
<path d="M118.676 66.3034L105.901 61.7037C103.999 61.0186 103.003 58.9021 103.688 56.9997C104.373 55.0974 106.49 54.1013 108.392 54.7864L121.166 59.3861C123.068 60.0712 124.064 62.1877 123.379 64.09C122.694 65.9924 120.578 66.9885 118.676 66.3034Z" fill="#A6E1EB"/>
<path d="M114.992 57.1631L108.392 54.7864C106.49 54.1013 104.373 55.0974 103.688 56.9997C103.003 58.9021 103.999 61.0186 105.902 61.7037L112.502 64.0804L114.992 57.1631Z" fill="#FE6B3A"/>
<path d="M125.673 39.6491L113 44.5213C111.113 45.2466 108.976 44.2966 108.25 42.4091C107.525 40.5221 108.475 38.3845 110.362 37.6587L123.035 32.7866C124.922 32.0612 127.06 33.0113 127.786 34.8987C128.511 36.7862 127.56 38.9238 125.673 39.6491Z" fill="#A6E1EB"/>
<path d="M116.91 35.1418L110.362 37.6592C108.475 38.3845 107.525 40.5221 108.25 42.4096C108.975 44.2966 111.113 45.2471 113 44.5217L119.548 42.0044L116.91 35.1418Z" fill="#FE6B3A"/>
<path d="M109.337 39.5672L121.482 34.5518" stroke="white" stroke-width="2" stroke-miterlimit="10" stroke-linecap="round"/>
<path d="M108.788 56.386L121.235 60.5924" stroke="white" stroke-width="2" stroke-miterlimit="10" stroke-linecap="round"/>
<path d="M166.599 79.703H158.54V87.7622H166.599V79.703Z" fill="#DAE8F1"/>
<path d="M166.599 87.7621H175.015V79.7029H166.599V87.7621Z" fill="#80AAA3"/>
<path d="M175.491 92.7412C173.722 91.7294 172.555 89.9269 172.555 87.8897V87.7359H171.977H161.124H160.546V87.8897C160.546 89.9269 159.378 91.7294 157.61 92.7412C155.565 93.9112 154.179 96.1131 154.179 98.6265V98.7846V128.462C154.179 132.194 157.233 135.248 160.966 135.248H172.136C175.868 135.248 178.922 132.194 178.922 128.462V98.7846V98.6265C178.922 96.1131 177.536 93.9112 175.491 92.7412Z" fill="#DD4926"/>
<path d="M161.124 87.7359H160.546V87.8897C160.546 89.9269 159.378 91.7294 157.61 92.7412C155.565 93.9112 154.179 96.1131 154.179 98.6265V98.7847V128.462C154.179 132.194 157.233 135.248 160.966 135.248H166.778V87.7355H161.124V87.7359Z" fill="#FE6735"/>
<path d="M175.015 102.369H152.15V127.094H175.015V102.369Z" fill="#DAE8F1"/>
<path d="M166.777 105.128H154.503V108.069H166.777V105.128Z" fill="#C3DDCD"/>
<path d="M166.777 111.204H154.503V114.145H166.777V111.204Z" fill="#C3DDCD"/>
<path d="M166.777 116.431H154.503V124.784H166.777V116.431Z" fill="#305D44"/>
<path d="M166.777 120.709L154.503 116.431H166.777V120.709Z" fill="#80AF59"/>
<path d="M187.033 99.3511C184.78 98.8334 183.098 96.8198 183.098 94.4093V89.1066H175.186V94.4093C175.186 96.8198 173.504 98.8329 171.251 99.3511H170.111C168.447 99.3511 167.099 100.7 167.099 102.363V132.457C167.099 134.12 168.447 135.469 170.111 135.469H188.375C190.038 135.469 191.387 134.12 191.387 132.457V102.363C191.387 100.7 190.038 99.3511 188.375 99.3511H187.033Z" fill="#FEC013"/>
<path d="M179.13 89.1066H175.186V94.4093C175.186 96.8198 173.504 98.8329 171.251 99.3511H170.111C168.447 99.3511 167.099 100.7 167.099 102.363V132.457C167.099 134.12 168.447 135.469 170.111 135.469H179.13V89.1066Z" fill="#FEDC19"/>
<path d="M184.378 85.9768H173.429V92.2489H184.378V85.9768Z" fill="#EBF1F2"/>
<path d="M184.379 86.0311H179.13V92.2489H184.379V86.0311Z" fill="#80AAA3"/>
<path d="M189.67 104.055H168.591V125.134H189.67V104.055Z" fill="#EBF1F2"/>
<path d="M189.67 104.055H179.243V125.134H189.67V104.055Z" fill="#A6E1EB"/>
<path d="M182.677 108.419C181.212 108.419 179.936 109.211 179.243 110.389C178.551 109.211 177.274 108.419 175.809 108.419C173.608 108.419 171.825 110.203 171.825 112.403C171.825 114.604 179.243 120.707 179.243 120.707C179.243 120.707 186.661 114.604 186.661 112.403C186.661 110.202 184.878 108.419 182.677 108.419Z" fill="#AE492B"/>
<path d="M179.243 110.389C178.593 109.178 177.202 108.419 175.809 108.419C173.608 108.419 171.825 110.203 171.825 112.403C171.825 114.604 179.243 120.707 179.243 120.707V110.389Z" fill="#FE6735"/>
<path d="M195.404 132.16L177.434 133.171" stroke="#949B96" stroke-width="2" stroke-miterlimit="10"/>
<path d="M197.13 128.327L197.55 135.78L246.116 133.046L245.696 125.593L197.13 128.327Z" fill="#DAE8F1"/>
<path d="M197.128 128.325L197.548 135.778L225.716 134.193L225.297 126.74L197.128 128.325Z" fill="#EF4E45"/>
<path d="M222.684 129.299C222.727 130.059 222.145 130.71 221.385 130.753L212.434 131.256C211.674 131.299 211.023 130.718 210.981 129.958C210.938 129.198 211.52 128.547 212.28 128.504L221.23 128.001C221.99 127.958 222.641 128.539 222.684 129.299Z" fill="#F8695E"/>
<path d="M197.556 135.777L197.137 128.324L194.432 132.214L197.556 135.777Z" fill="#F9837D"/>
<path d="M245.114 123.908L245.731 134.878L247.674 134.768L247.056 123.799L245.114 123.908Z" fill="#DAE8F1"/>
<path d="M246.529 127.4L246.738 131.113L256.936 130.539L256.727 126.826L246.529 127.4Z" fill="#AFAFAF"/>
<path d="M225.402 128.589L225.611 132.302L246.737 131.112L246.528 127.399L225.402 128.589Z" fill="#BBBCBB"/>
<path d="M225.296 126.741L225.716 134.194L228.132 134.058L227.713 126.605L225.296 126.741Z" fill="#BBBCBB"/>
<path d="M254.112 125.295L254.492 132.033L257.012 131.891L256.633 125.153L254.112 125.295Z" fill="#AFAFAF"/>
</svg>
