<svg width="48" height="48" viewBox="0 0 48 48" fill="none" xmlns="http://www.w3.org/2000/svg">
<rect width="48" height="48" rx="8" fill="#F43249"/>
<path d="M24 25.3333C26.9456 25.3333 29.3334 22.9455 29.3334 20C29.3334 17.0545 26.9456 14.6667 24 14.6667C21.0545 14.6667 18.6667 17.0545 18.6667 20C18.6667 22.9455 21.0545 25.3333 24 25.3333ZM24 25.3333C19.5818 25.3333 16 28.915 16 33.3333V37.3333M24 25.3333C28.4183 25.3333 32 28.915 32 33.3333V37.3333M25.3334 14.6667C25.8717 12.4475 28.0202 10.6667 30.6667 10.6667C33.563 10.6667 35.9741 13.0545 36 16C35.9741 18.9455 33.563 21.3333 30.6667 21.3333M30.6667 21.3333H29.3334M30.6667 21.3333C35.0501 21.3333 38.6667 24.915 38.6667 29.3333V32M22.6667 14.6667C22.1284 12.4475 19.9798 10.6667 17.3334 10.6667C14.4371 10.6667 12.026 13.0545 12 16C12.026 18.9455 14.4371 21.3333 17.3334 21.3333M17.3334 21.3333H18.6667M17.3334 21.3333C12.95 21.3333 9.33337 24.915 9.33337 29.3333V32" stroke="white" stroke-width="2"/>
</svg>
